<svg width="145" height="40" viewBox="0 0 145 40" fill="none" xmlns="http://www.w3.org/2000/svg">
<g clip-path="url(#clip0_63_3)">
<path d="M13.79 14.08C16.3095 14.0799 18.7511 14.9533 20.6987 16.5515C22.6464 18.1497 23.9797 20.3738 24.4714 22.8448C24.9631 25.3158 24.5828 27.8809 23.3952 30.1029C22.2077 32.325 20.2865 34.0665 17.9588 35.0308C15.6312 35.9951 13.0412 36.1225 10.6302 35.3913C8.21918 34.6601 6.13628 33.1155 4.73642 31.0207C3.33656 28.9259 2.70635 26.4106 2.95317 23.9032C3.19999 21.3959 4.30856 19.0517 6.09 17.27C7.09984 16.257 8.30001 15.4537 9.62148 14.9062C10.9429 14.3587 12.3596 14.078 13.79 14.08ZM13.79 11.18C10.5989 11.1889 7.50961 12.3041 5.04875 14.3357C2.5879 16.3674 0.907807 19.1896 0.294869 22.3213C-0.318068 25.453 0.17409 28.7003 1.68745 31.5098C3.20081 34.3192 5.64169 36.5169 8.59402 37.7281C11.5463 38.9393 14.8274 39.0891 17.8778 38.152C20.9282 37.2148 23.5592 35.2488 25.3223 32.5889C27.0854 29.9291 27.8714 26.7401 27.5464 23.5655C27.2214 20.391 25.8055 17.4275 23.54 15.18C22.2577 13.9049 20.7365 12.8952 19.0634 12.2089C17.3904 11.5225 15.5984 11.1729 13.79 11.18V11.18Z" fill="currentColor"/>
<path d="M72.94 21H56.21C56.51 25.18 59.71 28 64.08 28C65.2295 28.0363 66.373 27.8206 67.4303 27.368C68.4875 26.9154 69.4329 26.2369 70.2 25.38L71.72 27.13C70.7483 28.1996 69.5527 29.0418 68.2183 29.5967C66.8839 30.1515 65.4436 30.4053 64 30.34C57.77 30.34 53.51 26.08 53.51 20.15C53.51 14.22 57.65 10 63.28 10C68.91 10 73 14.14 73 20.15C73 20.37 72.94 20.68 72.94 21ZM56.21 19H70.39C70.2936 17.1847 69.5045 15.4756 68.1855 14.2248C66.8664 12.9739 65.1178 12.2767 63.3 12.2767C61.4822 12.2767 59.7336 12.9739 58.4145 14.2248C57.0955 15.4756 56.3064 17.1847 56.21 19Z" fill="currentColor"/>
<path d="M86.84 12.74V15.07C86.64 15.07 86.43 15.07 86.27 15.07C82.55 15.07 80.27 17.44 80.27 21.63V30.69H77.87V12.87H80.17V16.35C81.3 14 83.56 12.74 86.84 12.74Z" fill="currentColor"/>
<path d="M52.08 8.65002L42.2 30.87H39.11L29.27 8.65002H32.39L40.72 27.58L49.12 8.65002H52.08Z" fill="currentColor"/>
<path d="M114 1V4.66H100.43L98.57 14.92C100.009 14.4641 101.51 14.2314 103.02 14.23C110.16 14.23 115.02 19.57 115.02 26.56C115.02 33.86 109.94 39.84 101.68 39.84C98.8279 39.9405 96.0444 38.9512 93.8954 37.0734C91.7463 35.1955 90.3929 32.5699 90.11 29.73H94C94.2947 31.6193 95.2715 33.3352 96.7456 34.5532C98.2197 35.7712 100.089 36.4069 102 36.34C106.87 36.34 111.1 32.22 111.1 26.4C111.1 21.27 107.61 17.72 102.16 17.72C99.3272 17.8455 96.5501 18.55 94 19.79L97.52 1H114Z" fill="currentColor"/>
<path d="M119.53 11.9C121 4.29 125.61 0 131.8 0C136.56 0 140.74 2.86 142.96 8C144.44 11.39 144.87 15.3 144.87 19.85C144.87 24.4 144.39 28.37 142.96 31.75C140.74 36.94 136.56 39.85 131.8 39.85C129.752 39.8762 127.736 39.3459 125.966 38.3156C124.196 37.2852 122.739 35.7937 121.75 34C119.53 30.35 118.89 25.69 118.89 19.87C118.841 17.1988 119.056 14.5292 119.53 11.9V11.9ZM124.76 32.11C125.467 33.3796 126.493 34.443 127.736 35.1953C128.979 35.9476 130.397 36.3628 131.85 36.4C137.35 36.4 141.32 31.11 141.32 19.94C141.32 8.77 137.41 3.49 131.85 3.49C130.388 3.54116 128.965 3.9731 127.722 4.74306C126.478 5.51303 125.457 6.59434 124.76 7.88C123.02 10.79 122.59 14.76 122.59 19.94C122.59 25.12 123 29.2 124.76 32.11Z" fill="currentColor"/>
</g>
<defs>
<clipPath id="clip0_63_3">
<rect width="144.87" height="39.89" fill="white"/>
</clipPath>
</defs>
</svg>
